# xmcd
#
# Track frame offsets:
# 150
# 15375
# 27010
# 42743
# 60473
# 76045
# 90760
# 110918
# 122725
# 139155
# 151380
# 168185
# 180923
# 197283
# 209243
#
# Disc length: 2910 seconds
#
#
# Revision: 0
# Processed by: cddbd v1.5.1PL2 Copyright (c) Steve Scherf et al.
# Submitted via: FreeRIP 2.944 
#
DISCID=b70b5c0f
DTITLE=Blue in the Face - Pack Your Bag
DYEAR=1990
DGENRE=Blues
TTITLE0=Pack Your Bag
TTITLE1=Echo Chamber
TTITLE2=Reliable Like the Wind
TTITLE3=King Size Boogie Man
TTITLE4=Key to the Highway
TTITLE5=Hunk O' Junk
TTITLE6=Tell Me Why I Love You
TTITLE7=Shuffle the Deck
TTITLE8=Welcome Home
TTITLE9=Live Wire
TTITLE10=Woman Across the River
TTITLE11=Lookin' Back
TTITLE12=Backbone
TTITLE13=N. Y. C. Blues
TTITLE14=Hittin' the Note
EXTD=
EXTT0=
EXTT1=
EXTT2=
EXTT3=
EXTT4=
EXTT5=
EXTT6=
EXTT7=
EXTT8=
EXTT9=
EXTT10=
EXTT11=
EXTT12=
EXTT13=
EXTT14=
PLAYORDER=
